<svg xmlns="http://www.w3.org/2000/svg" viewBox="0 0 200 200"><defs><style>.cls-1{fill:#fff;}.cls-1,.cls-2,.cls-3{stroke:#231f20;stroke-miterlimit:10;}.cls-2{fill:#bcbec0;}.cls-3{fill:#231f20;}</style></defs><title>svg_icons</title><g id="hockey_stick"><polygon id="handle" class="cls-1" points="2.87 15.97 41.83 1.95 46.45 14.77 41.05 16.71 50.34 42.53 23.82 52.08 14.44 25.86 7.32 28.33 2.87 15.97"/><polygon id="shaft" class="cls-2" points="23.82 52.08 72.5 192.23 97.54 176.97 50.34 42.53 23.82 52.08"/><path id="blade" class="cls-3" d="M97.51,177l.06,0c5.72-4.08,62.19-10.6,76.66-1.63,8,5,4.08,13.8,1.8,17.58a5.79,5.79,0,0,1-4.6,2.79c-14.71.93-84.77,4.88-98.63-3.29a.21.21,0,0,1,0-.36Z"/></g></svg>