<svg xmlns="http://www.w3.org/2000/svg" viewBox="0 0 200 200"><defs><style>.cls-1,.cls-2{fill:none;}.cls-1,.cls-2,.cls-3,.cls-4{stroke:#231f20;stroke-miterlimit:10;}.cls-1{stroke-width:3px;}.cls-2,.cls-3,.cls-4{stroke-width:0.75px;}.cls-3{fill:#a7dcdf;}.cls-4{fill:#a7a9ac;}</style></defs><title>svg_icons</title><g id="lacrosse"><path class="cls-1" d="M27.54,40.89s-17.26-8-19.31-15.29,1.76-11.77,9-17.3a23.49,23.49,0,0,1,2.31-1.56c6.1-3.58,10.64-1.89,12.71,1a37.29,37.29,0,0,1,3,5.82c2.46,5.73,5,13.94,3.87,19,0,0,10.74,1.8,5,6.57a95.58,95.58,0,0,1-11.37,8.11S25.88,53.29,27.54,40.89Z"/><line class="cls-2" x1="18.42" y1="7.46" x2="32.88" y2="8.71"/><line class="cls-2" x1="35.01" y1="12.96" x2="13" y2="11.82"/><line class="cls-2" x1="8.61" y1="17.52" x2="37.17" y2="18.49"/><line class="cls-2" x1="38.69" y1="23.89" x2="7.76" y2="23.31"/><line class="cls-2" x1="9.5" y1="28.14" x2="39.36" y2="28.14"/><line class="cls-2" x1="39.15" y1="32.61" x2="13.47" y2="32.26"/><line class="cls-2" x1="19.71" y1="36.64" x2="45.66" y2="37.38"/><line class="cls-2" x1="41.03" y1="41.69" x2="27.42" y2="41.96"/><line class="cls-2" x1="27.39" y1="45.9" x2="34.97" y2="45.94"/><line class="cls-2" x1="40.56" y1="41.7" x2="41.69" y2="33.24"/><line class="cls-2" x1="39.04" y1="25.65" x2="36.28" y2="45.07"/><line class="cls-2" x1="35.92" y1="15.1" x2="31.73" y2="48"/><line class="cls-2" x1="31.68" y1="6.92" x2="27.3" y2="43.7"/><line class="cls-2" x1="26.54" y1="4.73" x2="21.42" y2="37.54"/><polyline class="cls-2" points="17.15 34.99 21.52 5.75 16.06 9.13 12.74 31.64 9.7 28.42 11.98 12.81"/><rect id="shaft" class="cls-3" x="86.61" y="28.86" width="3.95" height="172.87" transform="matrix(0.82, -0.57, 0.57, 0.82, -49.94, 71.12)"/><path id="nob" class="cls-4" d="M136.26,187.42a7.3,7.3,0,0,0,1,3.44,2.61,2.61,0,0,0,.36,2.3l6.74-5a2.7,2.7,0,0,0-2-1.2,6.21,6.21,0,0,0-2.89-1.81"/></g></svg>