<svg id="ICONSRUS" xmlns="http://www.w3.org/2000/svg" viewBox="0 0 334.42 55.02"><defs><style>.cls-1{fill:#ed1c24;}.cls-2{fill:#f7941d;}.cls-3{fill:#39b54a;}.cls-4{fill:#ec008c;}.cls-5{fill:#00aeef;}.cls-6{fill:#7f3f98;}</style></defs><title>logo</title><path class="cls-1" d="M25.88,13.83a32.41,32.41,0,0,1,6.3.59c2.65.52,4,1.65,4,3.37a1.82,1.82,0,0,1-.39,1.27,8.77,8.77,0,0,1-2,1.24,3.81,3.81,0,0,0-1.77,3,58.41,58.41,0,0,0-.43,8.91q0,11.19.56,13.86a2.93,2.93,0,0,0,.63,1.3,5.42,5.42,0,0,0,1.48,1,2.78,2.78,0,0,1,1.93,2.55c0,1.56-1.19,2.64-3.57,3.22a40.52,40.52,0,0,1-9.46.94q-9.55,0-9.56-3.63c0-.88.63-1.7,1.88-2.46a3.44,3.44,0,0,0,1.7-2.4,110.41,110.41,0,0,0,.56-14.18c0-5-.26-8.21-.77-9.61a4.29,4.29,0,0,0-2-2.17,7.12,7.12,0,0,1-1.61-1.32A2.15,2.15,0,0,1,13,17.9a2.24,2.24,0,0,1,1.22-2,13.76,13.76,0,0,1,4.29-1.34A37.54,37.54,0,0,1,25.88,13.83Z" transform="translate(-12.96 -5.56)"/><path class="cls-2" d="M60.48,13.63a19.19,19.19,0,0,1,8.26,1.87,7.57,7.57,0,0,0,2.61.88,9.22,9.22,0,0,0,1.7-.26A3.63,3.63,0,0,1,73.9,16a3.37,3.37,0,0,1,2.66,1.4,12.78,12.78,0,0,1,2.82,8.44,5.83,5.83,0,0,1-2.44,5.19,5.25,5.25,0,0,1-3,.88,4.22,4.22,0,0,1-2.43-.65A6.38,6.38,0,0,1,69.74,29a26.2,26.2,0,0,0-2-3.33,9.71,9.71,0,0,0-1.94-1.83,10.18,10.18,0,0,0-5.94-2A5.85,5.85,0,0,0,55,24a9,9,0,0,0-1.78,5.85,17.4,17.4,0,0,0,2.55,9.22,11,11,0,0,0,9.9,5.6,14.51,14.51,0,0,0,4.71-.79A9.47,9.47,0,0,0,74,41.87a3.08,3.08,0,0,1,1.82-1.06,2.18,2.18,0,0,1,1.76.95,3.68,3.68,0,0,1,.73,2.3,8.85,8.85,0,0,1-1,3.81,9.86,9.86,0,0,1-2.47,3.31,6.27,6.27,0,0,1-2.54.88,12.72,12.72,0,0,0-3,1.09,20.73,20.73,0,0,1-9,2.08A23.57,23.57,0,0,1,50.55,53a20,20,0,0,1-8.94-7.82,19.84,19.84,0,0,1-3.22-10.73,19.27,19.27,0,0,1,4-11.86A22.49,22.49,0,0,1,51.6,15.5,22,22,0,0,1,60.48,13.63Z" transform="translate(-12.96 -5.56)"/><path class="cls-3" d="M104,13.63a21,21,0,0,1,13.16,4.3,22.13,22.13,0,0,1,6.18,7.68A21,21,0,0,1,125.69,35a18.73,18.73,0,0,1-4.57,12.37A21.44,21.44,0,0,1,111,54a25.15,25.15,0,0,1-7.71,1.23,23.24,23.24,0,0,1-9.7-2.11,19.55,19.55,0,0,1-8.76-7.71,20.49,20.49,0,0,1-3.07-11A20.05,20.05,0,0,1,95.2,15.15,24.44,24.44,0,0,1,104,13.63ZM101.26,22a4.46,4.46,0,0,0-3.9,2.2,6.78,6.78,0,0,0-1.11,3.9,26.34,26.34,0,0,0,1.35,7.66,34.36,34.36,0,0,0,3.4,7.72,7.08,7.08,0,0,0,2.24,2.28,5,5,0,0,0,2.71.85A4.4,4.4,0,0,0,109.54,45a6.77,6.77,0,0,0,1.36-4.39,28.73,28.73,0,0,0-1.14-7.65,26.91,26.91,0,0,0-3-7,9.51,9.51,0,0,0-2.58-2.81A5.48,5.48,0,0,0,101.26,22Z" transform="translate(-12.96 -5.56)"/><path class="cls-4" d="M144.36,15.85,159,28.63c1.36,1.19,2.35,1.78,3,1.78,1,0,1.53-1.08,1.53-3.25a19.15,19.15,0,0,0-.44-5,3.34,3.34,0,0,0-1.85-2,4.33,4.33,0,0,1-1.61-1.19,2.66,2.66,0,0,1-.47-1.62c0-1.64,1.13-2.7,3.37-3.17a27.23,27.23,0,0,1,4.81-.29,23.8,23.8,0,0,1,6.12.53c1.8.54,2.7,1.58,2.7,3.1a3.1,3.1,0,0,1-2.2,2.87,4.54,4.54,0,0,0-1.2.68,2.3,2.3,0,0,0-.56.88q-.79,1.93-.82,7.32v9.55q0,2.2,0,6a29.6,29.6,0,0,1-.62,7.44c-.52,1.89-1.48,2.84-2.87,2.84a3.08,3.08,0,0,1-1.56-.38,15.69,15.69,0,0,1-2.19-1.76L146.7,37.36a5.07,5.07,0,0,0-3-1.64q-1.78,0-1.79,5a22.41,22.41,0,0,0,.46,5.56,3.49,3.49,0,0,0,1.86,2.2,2.87,2.87,0,0,1,2,2.52q0,4.06-8.76,4.07a14.54,14.54,0,0,1-6.14-1A3.22,3.22,0,0,1,129.09,51a2.35,2.35,0,0,1,.41-1.5,7.81,7.81,0,0,1,1.85-1.34A3.77,3.77,0,0,0,133,45.3a89.64,89.64,0,0,0,.5-10.87,49.69,49.69,0,0,0-.88-11,5.05,5.05,0,0,0-.82-1.87,4.88,4.88,0,0,0-1.64-1.18,5.6,5.6,0,0,1-1.83-1.26,2.2,2.2,0,0,1-.52-1.49q0-2.82,4.84-3.55a48.64,48.64,0,0,1,5.74-.23,11.23,11.23,0,0,1,3.41.37A8.11,8.11,0,0,1,144.36,15.85Z" transform="translate(-12.96 -5.56)"/><path class="cls-5" d="M195.74,13.63a28.39,28.39,0,0,1,7.91,1.49,3.43,3.43,0,0,0,.94.18,9,9,0,0,0,1.76-.53,2.72,2.72,0,0,1,1-.18q2,0,4.15,3.11a10.42,10.42,0,0,1,2.18,5.92,4,4,0,0,1-1,2.76,3,3,0,0,1-2.39,1.13,3.41,3.41,0,0,1-1.9-.47,33.07,33.07,0,0,1-3.22-2.78c-2.35-2.19-4.65-3.28-6.92-3.28a4,4,0,0,0-2.62.79,2.56,2.56,0,0,0-1,2.08q0,2.55,4.48,3.84a64.53,64.53,0,0,1,7.76,2.61q7.48,3.63,7.48,10.69a12.32,12.32,0,0,1-5.1,10.19q-5.22,4.05-13.63,4a37.49,37.49,0,0,1-7.91-.9,18.72,18.72,0,0,1-6-2.09c-.94-.63-1.78-2-2.54-4.09A18.16,18.16,0,0,1,178.08,42a3.39,3.39,0,0,1,.58-2.16,2.25,2.25,0,0,1,1.85-.94,2.93,2.93,0,0,1,2.14,1.14,44.81,44.81,0,0,1,2.9,4.13A8,8,0,0,0,189,46.91,11.59,11.59,0,0,0,193.87,48a6.75,6.75,0,0,0,3.51-.81,2.35,2.35,0,0,0,1.35-2.06,2.52,2.52,0,0,0-1-2,10.51,10.51,0,0,0-3.43-1.58,46.67,46.67,0,0,1-6.39-2.42,19.45,19.45,0,0,1-4.1-2.77q-4.63-4.09-4.63-9.32a11.29,11.29,0,0,1,1.2-5,12.57,12.57,0,0,1,3.4-4.23A18,18,0,0,1,195.74,13.63Z" transform="translate(-12.96 -5.56)"/><path class="cls-6" d="M237.19,38.47a13.39,13.39,0,0,0-1.88,5.19q-1.17,5.73-2,8.44a16.76,16.76,0,0,1-2.08,4.49q-2.7,4-9,4a15.2,15.2,0,0,1-7.4-1.51,5.74,5.74,0,0,1-2-1.92,4.53,4.53,0,0,1-.77-2.42,3.38,3.38,0,0,1,.42-1.68,2,2,0,0,1,1-1,5.39,5.39,0,0,0,2.54-1.45,8.09,8.09,0,0,0,.84-3.31c.45-4.11,1.2-7.15,2.25-9.14a9.78,9.78,0,0,1,5-4.45c1-.47,1.57-1.07,1.57-1.82a1.74,1.74,0,0,0-1-1.47,10.05,10.05,0,0,1-3.89-4.4,14.73,14.73,0,0,1-1.42-6.48q0-6.39,4.06-10a16.54,16.54,0,0,1,11.39-4c.82,0,2.24.09,4.28.27q4.83.46,7.73.46c1.16,0,2,0,2.54-.07q4.24-.39,5.31-.39a13.6,13.6,0,0,1,3.8.42A5.4,5.4,0,0,1,261,7.82a3.72,3.72,0,0,1,.91,2.5,3,3,0,0,1-.48,1.76,6,6,0,0,1-1.9,1.49,4.29,4.29,0,0,0-1.93,2.83,38.58,38.58,0,0,0-.45,7.32q0,17,.16,19.71a23.31,23.31,0,0,0,.69,5.28,5.66,5.66,0,0,0,1.92,2.65,7.93,7.93,0,0,1,1.61,1.57,2.83,2.83,0,0,1,.35,1.49q0,5.43-11.91,5.42-6.4,0-9.09-1.06a3.72,3.72,0,0,1-2.69-3.62,3.88,3.88,0,0,1,1.94-3.37,5.37,5.37,0,0,0,1.22-1,3.06,3.06,0,0,0,.48-1.2,44.22,44.22,0,0,0,.52-7.66,15.42,15.42,0,0,0-.34-4.15,1.49,1.49,0,0,0-1.56-.89A4.16,4.16,0,0,0,237.19,38.47Zm4.55-23.85a2,2,0,0,0-1.77-.7q-4.41,0-4.41,7.47,0,3.87,1.29,5.64A4.77,4.77,0,0,0,241,28.79a1.62,1.62,0,0,0,1.37-.47,3.38,3.38,0,0,0,.34-1.85v-.35l-.36-9A4.55,4.55,0,0,0,241.74,14.62Z" transform="translate(-12.96 -5.56)"/><path class="cls-3" d="M304.81,29.09v7.15q0,6.48-1,9.17-2.09,5.69-9.14,8.23A27.62,27.62,0,0,1,285,55.23q-9.41,0-15.06-4.49a11.57,11.57,0,0,1-3.81-5.09,25.85,25.85,0,0,1-1.05-8.38q0-2.15.14-7c.06-2.31.09-3.83.09-4.57A10.66,10.66,0,0,0,265,22.3a4,4,0,0,0-1.6-1.76,3.48,3.48,0,0,1-1.93-2.81,2.62,2.62,0,0,1,1-2A5.39,5.39,0,0,1,265,14.5a39.36,39.36,0,0,1,7.62-.64,36.54,36.54,0,0,1,8,.73q3.13.71,3.14,3.2a2.38,2.38,0,0,1-.91,2,13.39,13.39,0,0,1-1.76.91,2.25,2.25,0,0,0-1.27,1.49,13.1,13.1,0,0,0-.34,3.57c0,1.7-.08,5.38-.23,11q-.15,5,2.72,7.68a8.56,8.56,0,0,0,6,2.16,10.12,10.12,0,0,0,4.25-.86,6.8,6.8,0,0,0,2.9-2.36,7.07,7.07,0,0,0,1.08-2.55,20.1,20.1,0,0,0,.29-3.84V30.53a79.78,79.78,0,0,0-.42-8.69,3,3,0,0,0-1.89-2,7.22,7.22,0,0,1-2.08-1.23,1.88,1.88,0,0,1-.56-1.38,2.72,2.72,0,0,1,2.1-2.56,20.13,20.13,0,0,1,6.72-.81,19.67,19.67,0,0,1,6.58.79,2.68,2.68,0,0,1,2,2.52,1.86,1.86,0,0,1-.35,1.26,8.5,8.5,0,0,1-1.84,1.26,3.25,3.25,0,0,0-1.78,1.89A69.14,69.14,0,0,0,304.81,29.09Z" transform="translate(-12.96 -5.56)"/><path class="cls-4" d="M328.75,13.63a28.39,28.39,0,0,1,7.91,1.49,3.36,3.36,0,0,0,.94.18,9.23,9.23,0,0,0,1.76-.53,2.72,2.72,0,0,1,1-.18q2,0,4.15,3.11a10.42,10.42,0,0,1,2.18,5.92,4.07,4.07,0,0,1-1,2.76,3,3,0,0,1-2.39,1.13,3.39,3.39,0,0,1-1.9-.47,32.69,32.69,0,0,1-3.23-2.78Q334.67,21,331.27,21a4,4,0,0,0-2.62.79,2.53,2.53,0,0,0-1,2.08q0,2.55,4.48,3.84a64.53,64.53,0,0,1,7.76,2.61q7.47,3.63,7.47,10.69a12.33,12.33,0,0,1-5.09,10.19q-5.22,4.05-13.63,4a37.49,37.49,0,0,1-7.91-.9,18.72,18.72,0,0,1-6-2.09q-1.41-.95-2.54-4.09A18.18,18.18,0,0,1,311.08,42a3.39,3.39,0,0,1,.59-2.16,2.24,2.24,0,0,1,1.85-.94,2.89,2.89,0,0,1,2.13,1.14,44,44,0,0,1,2.91,4.13A8,8,0,0,0,322,46.91,11.59,11.59,0,0,0,326.88,48a6.75,6.75,0,0,0,3.51-.81,2.35,2.35,0,0,0,1.35-2.06,2.51,2.51,0,0,0-1.06-2,10.34,10.34,0,0,0-3.42-1.58,45.66,45.66,0,0,1-6.39-2.42,19.2,19.2,0,0,1-4.1-2.77q-4.63-4.09-4.63-9.32a11.29,11.29,0,0,1,1.2-5,12.45,12.45,0,0,1,3.4-4.23A18,18,0,0,1,328.75,13.63Z" transform="translate(-12.96 -5.56)"/></svg>
