<?xml version="1.0" encoding="utf-8"?>
<!-- Generator: Adobe Illustrator 23.0.1, SVG Export Plug-In . SVG Version: 6.00 Build 0)  -->
<svg version="1.1" xmlns="http://www.w3.org/2000/svg" xmlns:xlink="http://www.w3.org/1999/xlink" x="0px" y="0px"
	 viewBox="0 0 200 200" style="enable-background:new 0 0 200 200;" xml:space="preserve">
<style type="text/css">
	.st0{fill:url(#SVGID_1_);stroke:#000000;stroke-miterlimit:10;}
	.st1{fill:none;stroke:#000000;stroke-miterlimit:10;}
	.st2{stroke:#000000;stroke-miterlimit:10;}
	.st3{fill:url(#SVGID_2_);stroke:#000000;stroke-miterlimit:10;}
	.st4{fill:url(#SVGID_3_);stroke:#FFFFFF;stroke-miterlimit:10;}
	.st5{fill:none;stroke:#FFFFFF;stroke-width:4;stroke-miterlimit:10;}
	.st6{fill:url(#SVGID_4_);stroke:#000000;stroke-miterlimit:10;}
	.st7{fill:url(#SVGID_5_);stroke:#000000;stroke-miterlimit:10;}
	.st8{clip-path:url(#SVGID_7_);stroke:#000000;stroke-miterlimit:10;}
</style>
<g id="basketball">
</g>
<g id="hockey_x5F_puck">
</g>
<g id="tennis_x5F_ball">
</g>
<g id="volleyball">
</g>
<g id="volleyball_copy">
	<radialGradient id="SVGID_1_" cx="100" cy="100" r="97.0547" gradientUnits="userSpaceOnUse">
		<stop  offset="0" style="stop-color:#EFEFF0"/>
		<stop  offset="0.3494" style="stop-color:#EDEEEE"/>
		<stop  offset="0.5266" style="stop-color:#E7E7E8"/>
		<stop  offset="0.665" style="stop-color:#DBDDDE"/>
		<stop  offset="0.7834" style="stop-color:#CCCDCF"/>
		<stop  offset="0.889" style="stop-color:#B7B9BC"/>
		<stop  offset="0.984" style="stop-color:#A0A2A4"/>
		<stop  offset="1" style="stop-color:#9B9DA0"/>
	</radialGradient>
	<circle class="st0" cx="100" cy="100" r="97.1"/>
	<g>
		<defs>
			<circle id="SVGID_6_" cx="100" cy="100" r="97.1"/>
		</defs>
		<clipPath id="SVGID_2_">
			<use xlink:href="#SVGID_6_"  style="overflow:visible;"/>
		</clipPath>
		<polygon style="clip-path:url(#SVGID_2_);stroke:#000000;stroke-miterlimit:10;" points="80.6,71.6 34,73.3 18,29.5 54.7,0.8 
			93.4,26.8 		"/>
		<polygon style="clip-path:url(#SVGID_2_);stroke:#000000;stroke-miterlimit:10;" points="172.3,86.9 126.9,76.6 122.7,30.2 
			165.5,11.8 196.2,46.9 		"/>
		<polygon style="clip-path:url(#SVGID_2_);stroke:#000000;stroke-miterlimit:10;" points="179.2,185.5 135.8,168.5 138.6,122 
			183.7,110.2 208.8,149.5 		"/>
		<polygon style="clip-path:url(#SVGID_2_);stroke:#000000;stroke-miterlimit:10;" points="97.7,145.1 62.4,114.7 80.5,71.7 
			126.9,75.6 137.6,121 		"/>
		<polygon style="clip-path:url(#SVGID_2_);stroke:#000000;stroke-miterlimit:10;" points="107.2,218.9 61.3,210.5 55.1,164.4 
			97.1,144.1 129.3,177.8 		"/>
		<polygon style="clip-path:url(#SVGID_2_);stroke:#000000;stroke-miterlimit:10;" points="-1.8,152.7 -12.5,107.3 27.4,83.2 
			62.7,113.6 44.6,156.6 		"/>
	</g>
</g>
</svg>
