<svg xmlns="http://www.w3.org/2000/svg" viewBox="0 0 200 200"><defs><style>.cls-1,.cls-3{fill:none;}.cls-1,.cls-2,.cls-3{stroke:#231f20;stroke-miterlimit:10;}.cls-1{stroke-width:3px;}.cls-2{fill:#d1d3d4;stroke-width:2px;}.cls-3{stroke-width:0.75px;}</style></defs><title>svg_icons</title><g id="tennit_racket" data-name="tennit racket"><ellipse class="cls-1" cx="100" cy="67.94" rx="46.78" ry="62.67"/><path class="cls-1" d="M73.59,119.67s13.64,31,13.64,64.48H111.8s-2.74-40.77,15.79-65.6"/><path class="cls-2" d="M82.15,145.84h33.3s-5.46,25.79-3.65,38.31H87.23S86.09,151.72,82.15,145.84Z"/><g id="net"><line class="cls-3" x1="58.45" y1="96.71" x2="107.68" y2="129.76"/><line class="cls-3" x1="53.58" y1="75.67" x2="121.69" y2="123.48"/><line class="cls-3" x1="58.45" y1="39.17" x2="141.57" y2="96.71"/><line class="cls-3" x1="68.9" y1="21.14" x2="146.42" y2="75.67"/><line class="cls-3" x1="83.07" y1="9.51" x2="144.86" y2="50.19"/><line class="cls-3" x1="101.73" y1="5.32" x2="137.14" y2="29.85"/><polyline class="cls-3" points="107.68 6.12 53.9 78.61 53.22 56.52 132.32 113.24"/><line class="cls-3" x1="121.69" y1="12.4" x2="61.2" y2="102.96"/><line class="cls-3" x1="71.25" y1="117.38" x2="134.49" y2="25.61"/><polyline class="cls-3" points="142.27 41.07 87.63 128.39 102.87 129.76 146.42 64.47"/><line class="cls-3" x1="89.93" y1="6.73" x2="56.71" y2="48.41"/></g></g></svg>