<?xml version="1.0" encoding="utf-8"?>
<!-- Generator: Adobe Illustrator 23.0.1, SVG Export Plug-In . SVG Version: 6.00 Build 0)  -->
<svg version="1.1" xmlns="http://www.w3.org/2000/svg" xmlns:xlink="http://www.w3.org/1999/xlink" x="0px" y="0px"
	 viewBox="0 0 200 200" style="enable-background:new 0 0 200 200;" xml:space="preserve">
<style type="text/css">
	.st0{fill:url(#SVGID_1_);stroke:#000000;stroke-miterlimit:10;}
	.st1{fill:none;stroke:#000000;stroke-miterlimit:10;}
	.st2{stroke:#000000;stroke-miterlimit:10;}
	.st3{fill:url(#SVGID_2_);stroke:#000000;stroke-miterlimit:10;}
	.st4{fill:url(#SVGID_3_);stroke:#FFFFFF;stroke-miterlimit:10;}
	.st5{fill:none;stroke:#FFFFFF;stroke-width:4;stroke-miterlimit:10;}
	.st6{fill:url(#SVGID_4_);stroke:#000000;stroke-miterlimit:10;}
	.st7{fill:url(#SVGID_5_);stroke:#000000;stroke-miterlimit:10;}
	.st8{clip-path:url(#SVGID_7_);stroke:#000000;stroke-miterlimit:10;}
</style>
<g id="basketball">
</g>
<g id="hockey_x5F_puck">
</g>
<g id="tennis_x5F_ball">
</g>
<g id="volleyball">
	<radialGradient id="SVGID_1_" cx="100" cy="100.0003" r="97.0547" gradientUnits="userSpaceOnUse">
		<stop  offset="0" style="stop-color:#EFEFF0"/>
		<stop  offset="0.3494" style="stop-color:#EDEEEE"/>
		<stop  offset="0.5266" style="stop-color:#E7E7E8"/>
		<stop  offset="0.665" style="stop-color:#DBDDDE"/>
		<stop  offset="0.7834" style="stop-color:#CCCDCF"/>
		<stop  offset="0.889" style="stop-color:#B7B9BC"/>
		<stop  offset="0.984" style="stop-color:#A0A2A4"/>
		<stop  offset="1" style="stop-color:#9B9DA0"/>
	</radialGradient>
	<circle class="st0" cx="100" cy="100" r="97.1"/>
	<path class="st1" d="M63.1,189.8C118.8,144.2,100,100,100,100s52.7-25.9,96.5-10.5"/>
	<path class="st1" d="M24.1,39.5c0,0,12.5,59.3,75.9,60.5"/>
	<path class="st1" d="M9.1,65.8c0,0,8.4,57.4,90.9,71.3"/>
	<path class="st1" d="M2.9,100c0,0,26.6,50.8,84.8,63.7"/>
	<path class="st1" d="M12.4,141.9c0,0,15.9,34.6,60.4,39.1"/>
	<path class="st1" d="M125.5,90.6c0,0,20.9,68.1-33.9,106"/>
	<path class="st1" d="M147.5,85.9c0,0,28.6,55.2-10.6,103.8"/>
	<path class="st1" d="M173.2,84.9c0,0,25.7,31.4,1.9,76.6"/>
	<path class="st1" d="M66.9,90.6c0,0,52-50.5,125.9-19.3"/>
	<path class="st1" d="M43.7,75.9c0,0,67-75.9,140.1-24.9"/>
	<path class="st1" d="M27.9,51c0,0,50.7-70.8,133-26.5"/>
</g>
<g id="volleyball_copy">
</g>
</svg>
